<svg xmlns="http://www.w3.org/2000/svg" viewBox="0 0 290.288 290.288">
  <path fill="#fff" d="M250.476 105.333C241.622 32.937 203.317 0 145.143 0S48.664 32.937 39.81 105.333c-5.441 44.49-21.163 117.453-27.569 146.319-1.552 6.994 2.425 14.042 9.221 16.308l64.787 21.608a13.998 13.998 0 0 0 18.4-12.385l5.654-88.229a14 14 0 0 0-7.913-13.516l-42.176-20.241c-5.484-2.632-7.796-9.211-5.164-14.695l9.94-20.712a11.013 11.013 0 0 1 14.695-5.163l42.516 20.405a14 14 0 0 1 7.942 12.621v53.464a5.637 5.637 0 0 0 2.985 4.974l9.362 4.993a5.64 5.64 0 0 0 5.306 0l9.362-4.993a5.638 5.638 0 0 0 2.985-4.974v-53.464a14 14 0 0 1 7.942-12.621l42.517-20.405a11.015 11.015 0 0 1 14.695 5.163l9.94 20.712c2.632 5.484.32 12.063-5.164 14.695l-42.176 20.241a13.998 13.998 0 0 0-7.913 13.516l5.654 88.229a13.999 13.999 0 0 0 18.4 12.385l64.787-21.608c6.81-2.271 10.776-9.3 9.221-16.308-6.407-28.867-22.129-101.829-27.57-146.319z"/>
</svg>