<svg width="623" height="698" viewBox="0 0 623 698" fill="none" xmlns="http://www.w3.org/2000/svg">
<path d="M47.5 256L35 268.5L40 274L39 276L41.5 279L49 271.5L51.5 273L53 272L55 273L60 268.5L47.5 256Z" stroke="white"/>
<path d="M178.5 46L174.5 42L166 50.5L168 52.5L161 59L159 58L157 59L153.5 56L147 62.5L148 64L141 72L142 74L141 75.5L143 77.5L137 83.5L143 89.5L139 93.5L140 95L139 97L140 99L139 100.5L141 102.5L139 104.5L141 106.5L137 110.5L141 114.5L139 116.5L141 118.5L130 130L133 133.5L131 135.5L133 137.5L131 139.5L135 143.5L133.5 145L135 147.5L126.5 156L124.5 154L122.5 156L120.5 154L114 160.5L116 162.5L114 164.5L116 166.5L107 176L108 178L107 180L108 181.5L99.5 190L97.5 189L92 194L84 187L82 188L80 187L76 190L74 189L72.5 190L70.5 189L69 190L67 189L49 207L50 209L49 211L50 212.5L45.5 217L44 216L39 220.5L44 226L39.5 231L32 224L28.5 227L26.5 225L24.5 227L22.5 225L18.5 229L12.5 223L4 231.5L6 233.5L4 235.5L6 237.5L2 241.5L4 243.5L2 245.5L4 247.5L2 249.5L6 253.5L3 257L12 266.5L1 278L6 283.5L4 285.5L20.5 302L22.5 300L32 309L35.5 306L41.5 312L53 301L58.5 306L61 304.5L62.5 306L68.5 300.5L78.5 310L80.5 308L116 343.5L114 345.5L118 349.5L116 351.5L117.5 353L116 355.5L120.5 360L122.5 358L132 367L134 366L138 369L140 368L142 369L144 368L146 369L149.5 366L151.5 368L167 353L168.5 354L175.5 347L166 337.5L167 336L166 334L171 328L170 326.5L173.5 322L170 318.5L173 315L172 313L175 309L174 307L175 305L166 295.5L168 293.5L164 289.5L166 287.5L162 283.5L163.5 282L162.5 280L170 272.5L164 266.5L166 264.5L163.5 262.5V259.5L167 255L166 253.5L167.5 251L164 247.5L166 245.5L164 243.5L166 241.5L164 239.5L170.5 233L172.5 235L174.5 233L176.5 235L184.5 227L186.5 229L190 226L191.5 227L196.5 222L195 220.5L200 216L204 220L203 222L210 230L209 232L212 235.5L210 237.5L212 239.5L208 243.5L211 246L213 245L218 249.5L216 251.5L217.5 253.5L216.5 254.5V255.5L217.5 257L216 258.5L218 260.5L214 264.5L216 266.5L214 268.5L216 270.5L214 272.5L216 274.5L212.5 278.5L221 286.5L222.5 285L234 296L236 295L242 300L250 293L264 307L263 309L274 320.5L269 325L261 318L258 320.5L260 322.5L258.5 324L266 332.5L265 334L266 335.5L264.5 338L270 343.5L266 347.5H264.5L263.5 346.5L262.5 345.5L261.5 344.5H260.5L259.5 345.5V346.5H258.5L257.5 345.5V347.5L254.5 350.5V351.5H255.5V353.5H254.5V355.5H253.5H248.5V354.5H246.5L245.5 353.5H242.5L240.5 355.5V356.5L239.5 357.5V360.5L240.5 361.5V364.5L241.5 365.5V366.5H242.5L253.5 377L257 374L259 375L261 374L267 379L271 376L273 377L279 372L283 376L257.5 402L254 399L245 407.5L246 409L228.5 427L227 426L223 429L209.5 416L207.5 418L205.5 416L198 423L196 422L178.5 439L174.5 435L170.5 439L168.5 437L165 440.5L163 439.5L151 450.5L147.5 446.5H146.5V443.5L147.5 442.5V438.5H146.5L145.5 437.5H133.5L132.5 438.5H131.5V441L132.5 442.5V446.5L133.5 447.5V450.5L134 452L133 453.5L135 455.5L133 457.5L135 459.5L133.5 461L135 463.5L134 465L138 469L139.5 468L142 469.5L143.5 468L145.5 470L147.5 468L149.5 470L151.5 468L153.5 470L156 467L155 465L159 460.5L163.5 464L167 461L168.5 462L174.5 456L176.5 458L178.5 456L180.5 458L182 457L184 458L186 457L188 458L192 455L197.5 460L199.5 458L201.5 460L203.5 458L205.5 460L209 457L213 460L219 455L225 461L224 463L225 465L222 469L231 478.5L230 480L243 493.5L241 495.5L243 497.5L241 499.5L243 501.5L241 503.5L243 505.5L236 513L237 515L224 528.5L226 530.5L224 532.5L235 544L234 546L235 548L234 550L235 552L233.5 553.5L234 554L240 549L249 557.5L247 559.5L249 561.5L247 563.5L248 565L242 571L240.5 570L238.5 572L234.5 568L230 573L231 575L230 577L231 579L228 582.5L231 586L230 588L238.5 597L240.5 595L247 601.5L245 603.5L247 605.5L245 607.5L249 611.5L247 613.5L250 617L249 619L250 621L249 623L255.5 630L257.5 628L270 640.5L268 642.5L271 646L270 648L274.5 653L276.5 651L278.5 653L280.5 651L289 659.5L287 661.5L289 663.5L287 665.5L289 667.5L286 671L287 673L284.5 676L282.5 674L280.5 676L276.5 672L274.5 674L272.5 672L270.5 674L269 673L261 681L267 687L269 686L276.5 693L281 689.5L288.5 697L294 692L296 693L302 688L304 689L306 688L307.5 689L316 680.5L315 679L318 675L317 673L323 667L325 668L327 667L328.5 668L339 657.5L338 656L339 654L338 652L339 650L338 648L339 646L338 644L341 640.5L339 638.5L341 636.5L330 625L331 623L323 615L319 618.5L317 616.5L314.5 619L316.5 621L311.5 626L308.5 623L310 621.5V620.5L307.5 618L305.5 620L301 615.5L304.5 611.5V610.5L295 601.5L301.5 595L303.5 597L307.5 593L312.5 598.5H314.5L317.5 595L319.5 596.5L321 595.5L322.5 597L330.5 589L332.5 591L341 582.5L339 580.5L341 578.5L339.5 577V576.5L341 574.5L339.5 573L341 571L340 569.5V568.5L343 565.5L341.5 563.5V563L343 561.5L341 559.5L345 555.5L343 553.5L351.5 545L353.5 547L357.5 543L359.5 545L363.5 541L365.5 543L367.5 541L369.5 543L372.5 539.5H373.5L374.5 541.5L377 539.5L378.5 541L380.5 539L382.5 541L386.5 537L395 545.5V546.5L391.5 549.5V550.5L393 551.5L387.5 556.5V557.5L399.5 569.5H400.5L402 568.5L405.5 572L415.5 562L417.5 564L426 555.5L424 553.5L438.5 539L446.5 547L448.5 545L450 546.5L452 545L457 549.5L452 554.5L450 552.5L448 554.5L446 553L436 563L437 565L436 567L439 571L437.5 573L444 579.5L446 577.5L450 581.5L454 577.5L456 579.5L458 577.5L462 581.5L466.5 577L464.5 575L471.5 568L475.5 572L478 569.5L476.5 567L482 561.5L480 559.5L491.5 548L490 546L497.5 538L495.5 536L497 534.5L495 532.5L497 530.5L495 528.5L497 526.5L494.5 524L492.5 526L490.5 524L488.5 526L486.5 524L485 525.5L483 523.5L481 525.5L479 523.5L477 525.5L475 523.5L473 525.5L469.5 522L467.5 524L465.5 522L463.5 524L461.5 522L459.5 524L455 519.5V518.5L461.5 512L463.5 514L480 497.5L478 495.5L480 493.5L475.5 489L473.5 491L471.5 489L467.5 493L465.5 491L463.5 493L459.5 489L457.5 491L452 485.5L446.5 491L441.5 486L443.5 484L439.5 480L441 478.5L437.5 475L443.5 469L441.5 467L445 463.5V462.5L442 459.5V458.5L443 457.5V456.5L442 455.5V454.5L443 453.5L441 451.5L449 443.5L448 442.5V441.5L477.5 412L478.5 413H479.5L483.5 409.5V408.5L482 407.5L484 405.5L482 403.5L486 399.5L484 397.5L486.5 395L496.5 404L500 401L507.5 408.5L510 406.5L519.5 416L523.5 412.5L528.5 416.5L526 418.5L528.5 420.5L526 422.5L532.5 428.5L529.5 430.5L532.5 432.5L529.5 434.5L532.5 436.5L530.5 437.5V438.5L541.5 449.5V450.5L540 451.5L548.5 460L552 456.5L554 458.5L556 456.5L558 458.5L560 456.5L562 458.5L564 456.5L565.5 458L567.5 456L569.5 458L576.5 451H577.5L578.5 452.5H579.5L580.5 451H581.5L584.5 454H585.5L590 449.5L588 447.5L594.5 441L596.5 443L609 430.5L605 426.5L611.5 420.5L609 418.5L611.5 416.5L609 414.5L612.5 411.5V410.5L611 409.5L613 407.5L611 405.5L613 403.5L611 401.5L615 397.5L613 395.5L615 393.5L605.5 384.5V383.5L607 382.5L603 378.5L605 376.5L601 372.5L603.5 370.5L601.5 369.5V368.5L606.5 364L607.5 365.5H608.5L609.5 363.5H610.5L611.5 365.5H612.5L613.5 364L615.5 365.5H616.5L622.5 359.5V358.5L620.5 357.5V356.5L622 355.5V354.5L620.5 353.5V352.5L622 351.5V350.5L621 349.5L622.5 347.5V347L613 337.5L614 336.5V336L606.5 327.5H605.5L604.5 329L592 316.5L593.5 315L582 303.5L584 301.5L580 297.5L599.5 278L598 276L600.5 273L602.5 275L603 274.5L601.5 272.5L603.5 270.5H605.5L606.5 269.5H607.5L608.5 270.5L609.5 269.5L610.5 268.5V264.5L611.5 263.5V259.5L612.5 258.5V256.5L611.5 255.5H609.5L608.5 254.5H600.5L599.5 255.5H598.5H596.5L595.5 256.5V257.5L596.5 258.5V260L595.5 261L575 281.5V282.5L576 283.5V284.5L571.5 289.5L569.5 287L567.5 289L563.5 285L562.5 286.5H561.5L556.5 281L552.5 285.5L550.5 283L548.5 285.5L544.5 281L540.5 285.5L538.5 283L536.5 285.5L534.5 283L531.5 286.5H530.5L529.5 284.5H528.5L527.5 286.5H526.5L525.5 284.5L523.5 287L512.5 276.5V275.5L514 274.5V273.5L510.5 269.5H509.5L508.5 271.5H507.5L500.5 263.5H499.5L498.5 265.5H497.5L496.5 263.5L494.5 265.5H493.5L490.5 262L488.5 264L480.5 255.5L479.5 257.5H478.5V257L473.5 252L468.5 256.5V257.5L470.5 259L462.5 267.5H461.5L454.5 260.5L456.5 259.5V258.5L436.5 238.5L435.5 240.5H434.5L433.5 238.5H432.5L431.5 240H430.5L420.5 230.5V229.5L422 228.5V227.5L414.5 220.5V219.5L416.5 218.5L414.5 216.5V216L420 210.5L419 209.5V208.5L430 197.5L428 195.5L430 193.5L428 191.5L430 189.5L428 187.5L430 185.5L426 181.5L428 179.5L426 177.5L431.5 172.5V171.5L429.5 170.5L432 168.5L424 160.5L426 158.5L420.5 153.5V152.5L422.5 151.5V150.5L418.5 147.5V146.5L420.5 145.5V144.5L418.5 143.5V142.5L424.5 137.5L419.5 133.5L422.5 131.5L420.5 130.5V129.5L422 127.5L417.5 123L415.5 125L409 118L424.5 102.5L421.5 99.5L419 102L415.5 98.5L403 110.5L405 112.5L396.5 121.5L392.5 116.5L386.5 123.5L375.5 111.5H374.5L361.5 125.5L359.5 122.5L357.5 125.5L355.5 122.5L353.5 125.5L351.5 122.5L349.5 125.5L344.5 119.5H343.5L342.5 121.5L340.5 118.5L338.5 121.5L336.5 118.5L334.5 121.5L319.5 106.5L322.5 104.5L317.5 99.5L313.5 104.5L311.5 101.5L309.5 104.5L302.5 97.5V96.5L310.5 89.5V88.5L308.5 87.5V86.5L310.5 85.5L308.5 83.5L306.5 82.5V81.5L308.5 80.5V79.5L299.5 70.5L296.5 74.5H295.5L294.5 72.5H293.5L292.5 74.5H291.5L283.5 66.5V65.5L287.5 62.5L282.5 58.5L285.5 56.5L281.5 53.5V52.5L283.5 51.5V50.5L281.5 49.5V48.5L283.5 47.5V46.5L277.5 41.5V40.5L279.5 39.5V38.5L275.5 35.5L278.5 33.5L275.5 31.5L279.5 28.5V27.5L277.5 26.5V25.5L278.5 24.5L279.5 23.5L281.5 22.5V21.5L279.5 20.5V19.5L281.5 18.5V17.5L279.5 16.5V15.5L281.5 14.5V13.5L279.5 12.5V11.5L281.5 10.5V9.5L277.5 5.5H276.5L275.5 7.5H274.5L269 1.5L267 3.5L265 1.5L253.5 13.5L251.5 11L240 22.5L238.5 21L233.5 26L237.5 29.5L226.5 40.5L224.5 37.5L222.5 40.5L219 36.5L215 40.5L211 36.5L203.5 44L201.5 42L195.5 48.5L193.5 46L192.5 47.5H191.5L190.5 46.5L189.5 46L188 47.5L184.5 44L182.5 46.5L180.5 44L178.5 46Z" stroke="white"/>
<path d="M104 314.5L87 297.5L89 295.5L87 293.5L89 291.5L87 289.5L89 287.5L87 285.5L88 284L83 278.5L85 276.5L81 272.5L83 270.5L81 268.5L83 266.5L81 264.5L85 260.5L83 258.5L86 255L85 253.5L100 238L97 234L101.5 229L105.5 233L114 224.5L112 222.5L114 220.5L110 216.5L112 214.5L110 212.5L124.5 198L126.5 200L133 193.5L131 191.5L133 189.5L128 184L131 180L130 178L131 176L130 174L136 168L140 171L147 164.5L145 162.5L152 155L151 153L154 149L153 147L157 143L159 144L166 137.5L164 135.5L169 131L171 132L172.5 131L180 138L182 137L184 138L186 137L188 138L196 131L198 132L199.5 131L203.5 135L209.5 129L211 130L213 129L217 132L219 131L223 134L224.5 133L227 134.5L232.5 129L234 130.5L236.5 129L238 130L242 127L244 128L245.5 127L252 132.5L253.5 131L257 134.5L259.5 133L261 134L271 124L268 120.5L275 114L278.5 117L282.5 113L284.5 115L286 114L290 117L292 116L298 122L295 125.5L302 132L303.5 131L305.5 133L307.5 131L318 141.5L316 143.5L318 145.5L317 147L320 150.5L318.5 153L320 154.5L312 162.5L314 164.5L312 166.5L314 168.5L313 170L314 172L313 174L327 188L329 187L331 188L332.5 187L334 188.5L336.5 187L338 188L348 179L357 188L351 193.5L361.5 204L365.5 200L369.5 204L371.5 202L373 203L374.5 202L385 213L380 218.5L381.5 220.5L380 222.5L381 224L380 226L383 230L380 234L381 236L377 240L375 239L370 243.5L372 245.5L370 247.5L372 249.5L370.5 251L372 253.5L369 257L370 258.5L368.5 261L370 262.5L368 264.5L376 272.5L346 302L344 301L342.5 302L340 301L336.5 304L334.5 302L332.5 304L330 301.5L317.5 289L309.5 296L303.5 291L284.5 310L259 284L264 278L263 276L267 272L272.5 277L275 275.5L276.5 277L281 272L280 270.5L283 266.5L282 265L283 263L267 247L265 248L263 247L261.5 248L256.5 243L258 241.5L247.5 231L246 232.5L243 229.5L246 226L236 216L234 217L230 213L233 209L232 207L233 205L232 203L233 201L232 199L233 197L232 195L235 191.5L228 184L229 182L215 168L207.5 175L203.5 171L195.5 179L191.5 175L186 180L182.5 177L180.5 179L178.5 177L170 185.5L172 187.5L170 189.5L172 191.5L170 193.5L171 195L170 197L171 199L168 203L169 205L162 212.5L164 214.5L160 218.5L162 220.5L157 226L158 228L155 232L156 234L151 240L152 241.5L149 245L150 247L141 257L142 259L141 260.5L143 262.5L141 264.5L145 268.5L143 270.5L145 272.5L143 274.5L144 276L141 280L144 284L143 285.5L144.5 288L143 289.5L145 291.5L141 295.5L150 305L149 307L150 309L149 311L150 313L149 315L150 317L149 318.5L150.5 320.5L149 322.5L150 324L145.5 329L144 327.5L141.5 329L140 328L132.5 335L130.5 333L128.5 335L120.5 327L118.5 329L115 326L113 327L107 322L105 323L102 320.5L104 318.5L102.5 317L104 314.5Z" stroke="white"/>
<path d="M240 64L234 70L235 72L234 74L235 76L234 78L235 79.5L233 81.5L235 83.5L233 85.5L240 92L242 91L245.5 94L248 92.5L249.5 94L251.5 92L253.5 94L257.5 90L259.5 92L268 83.5L266 81.5L270 77.5L265 72L268 68.5L261 62L255.5 67L248 60L242 65L240 64Z" stroke="white"/>
<path d="M242 251L238 255L244 261L250 255L246 250.5L243.5 252L242 251Z" stroke="white"/>
<path d="M269 425L264 420.5L266 418.5L264.5 417L266 414.5L265 413L276 401.5L274 399.5L284.5 389L286.5 391L292.5 385L298 390L303.5 385L307.5 389L311.5 385L319 392L321 391L323 392L324.5 391L334.5 400L336 399L338 400L340 399L342 400L346 397L352 402L354 401L360 407L359 409L369.5 420.5L355.5 435L349 428.5L351 426.5L349 424.5L351 422.5L346 418L344 419L342.5 418L338 421.5L336.5 420L334.5 422L332.5 420L331 421.5L328.5 420L320 428.5L322 431L311 442L312 444L311 446L312 448L305.5 454L304 453L302 454L295 447.5L297 445.5L279 427.5L276.5 429L271 424L269 425Z" stroke="white"/>
<path d="M309.5 476L305 480.5L309.5 485L314 480.5L309.5 476Z" stroke="white"/>
<path d="M300 509L293.5 515L294.5 517L294 519L302 527L312 517L304 509L301.5 510L300 509Z" stroke="white"/>
<path d="M294 565L290 569L294 573L298 569L294 565Z" stroke="white"/>
<path d="M342 538L344 539L348 536L350 537L356 532L357.5 533L360 531.5L361.5 533L365 530L367 531L369 530L371 531L373 530L375 531L377 530L379 531L387 523L386 521L387 519L386 517L389 513L387.798 511L389 509L388 507L389 505.5L382.5 499L377 504L373 501L371 502L369 501L367 502L365 501L363 502L361.5 501L360 502.5L357.5 501L356 502L354 501L352 502L350 501L348 502L346 501L339 507.5L341 509.5L340 511L343 515L342 517L345 520.5L341 524.5L343 526.5L337 532.5L339 534.5L338 536L340.5 539L342 538Z" stroke="white"/>
<path d="M340 442L344.5 437L351 443.5L346 448L344 447L342 448L339.5 446L341 443.5L340 442Z" stroke="white"/>
<path d="M338 459L342 455L344 456L348 453L350 454L356 449L358 450L365.5 443L370 447.5L368 449.5L370 451.5L368 453.5L370 455.5L365 461L366 463L359.5 470L357.5 468L354 471.5L351.5 470L350 471L348 470L346 471L344 470L342 471L338 467L339 465L338 463L339 461L338 459Z" stroke="white"/>
<path d="M313.5 337L303 347.5L304.5 349L303 351.5L311.5 360L313.5 358L315.5 360L324 351.5L322 349.5L324 347.5L313.5 337Z" stroke="white"/>
<path d="M290 330L286 334L288.5 337L293 332.5L290 330Z" stroke="white"/>
<path d="M298 322L293 326.5L296 329L301 324.5L298 322Z" stroke="white"/>
<path d="M329 322L326 324.5L330.5 329L333 326L329 322Z" stroke="white"/>
<path d="M338.5 331L336 334L340.5 339L343 336L338.5 331Z" stroke="white"/>
<path d="M340.5 360L336 365L338 367.5L343 362.5L340.5 360Z" stroke="white"/>
<path d="M330.5 370L326 374.5L328.5 377L333 372.5L330.5 370Z" stroke="white"/>
<path d="M296 370L293 372.5L298 377L301 374.5L296 370Z" stroke="white"/>
<path d="M293 366.5L290 369L286 365L288.5 362L293 366.5Z" stroke="white"/>
<path d="M359.5 383L355 388L380.5 414L389 405L388 403L389 401.5L387.5 399L392 395L399 401.5L397 403.5L401 407.5L399 409.5L403.5 414L407.5 410L418 420.5L416.5 422.5L427 433L429 432L432.5 435L454 413L453 411.5L454.5 409L453 407.5L457 403.5L455 401.5L457 399.5L455 397.5L458 395L460 396L468 388L467 386L468 384L467 382L468 380L467 378L468 376.5L465 372.5L466 371L459.5 364L456 367L452 364L450 365L448.5 364L444 367.5L440 363L441 361L436 355L437 353L434 349.5L437.5 346L436 343.5L437 342L436 340L437 338L436 336L437 334L432 328.5L433.5 326L424 316.5L426 314.5L422.5 311L424 308.5L423 307L430 299.5L428 297.5L430 295.5L424 289.5L426 287.5L423 285L417 290L413.5 287L405 295.5L407 297.5L403 301.5L404 303L396 311L382 297.5L384 295.5L382 293.5L385 290L384 288L385 286L382.5 283L377 288L375 287L368 293.5L370 295.5L357 309L361.5 314L369.5 306L378 314.5L370 322.5L374 326.5L369 332L370 334L367 338L368 339.5L364 343.5L370 349.5L366.5 353L371.5 358L375 355L389.5 369.5L371.5 387L369.5 385L365.5 389L359.5 383Z" stroke="white"/>
<path d="M593 374L588 378.5L589.5 380L588 382.5L594.5 389L599 384L598 382L599 380L593 374Z" stroke="white"/>
<path d="M552 403L546 409L547 411L546 413L547 415L546 417L549 420.5L547.5 423L556 431L561 426.5L559 424.5L561 422.5L557 418.5L559 416.5L556 413L559 409.5L552 403Z" stroke="white"/>
<path d="M551 393.5L542.5 385L536 391.5L544.5 400L551 393.5Z" stroke="white"/>
<path d="M518 359L517 357L529 345L537 352L539 351L549 361L541 369.5L536.5 366L535 367L533 366L525 373L517 365L518 363L517 361L518 359Z" stroke="white"/>
<path d="M456.5 328L455 326.5L475.5 306L485 315L488.5 312L497 320.5L495 322.5L497 324.5L488.5 333L481 326L479 327L477 326L475 327L473 326L461.5 337L455 330.5L456.5 328Z" stroke="white"/>
<path d="M566 320L555 330.5L569.5 345L571.5 343L575 346L580 341.5L577 338L580 334L575 328L576 326.5L571 321.5L569.5 323L566 320Z" stroke="white"/>
<path d="M189 83.5L187 81.5L195.5 73L206 83.5L204.5 85.5L206 87.5L197.5 96L195.5 94L193.5 96L187 89.5L189 87.5L187 85.5L189 83.5Z" stroke="white"/>
<path d="M477 374L472 378.5L480.5 387L485 382L477 374Z" stroke="white"/>
</svg>
